# xmcd
#
# Track frame offsets:
#	150
#	11379
#	22351
#	34338
#	46131
#	59156
#	68282
#	80320
#	93349
#	106292
#	118097
#	135137
#	148274
#	159675
#	172851
#
# Disc length: 2464 seconds
#
# Revision: 1
# Processed by: cddbd v1.5.2PL0 Copyright (c) Steve Scherf et al.
# Submitted via: audiograbber 1.83.01
#
DISCID=c2099e0f
DTITLE=Various Artist - Golden Age of Country: Crazy Arms CD1
DYEAR=2009
DGENRE=Country
TTITLE0=Marty Robbins - Singing the Blues
TTITLE1=Carl Smith - (When You Feel Like You're in Love) Don't Just Stand There
TTITLE2=Don Gibson - I Can't Stop Loving You
TTITLE3=Ray Price - Crazy Arms
TTITLE4=Jim Reeves - Four Walls
TTITLE5=Elvis Presley - That's All Right
TTITLE6=Eddy Arnold and His Guitar - The Cattle Call
TTITLE7=Hank Snow - I'm Moving On
TTITLE8=Porter Wagoner - The Carroll County Accident
TTITLE9=Johnny Horton - The Battle of New Orleans
TTITLE10=Johnny Cash - A Boy Named Sue
TTITLE11=The Browns - The Three Bells (Les Trois Cloches)
TTITLE12=Stonewall Jackson - Waterloo
TTITLE13=Tammy Wynette and David Houston - My Elusive Dreams
TTITLE14=Skeeter Davis - The End of the World
EXTD=
EXTT0=
EXTT1=
EXTT2=
EXTT3=
EXTT4=
EXTT5=
EXTT6=
EXTT7=
EXTT8=
EXTT9=
EXTT10=
EXTT11=
EXTT12=
EXTT13=
EXTT14=
PLAYORDER=
